<svg xmlns="http://www.w3.org/2000/svg" viewBox="30 150 280 230">
  <g>
    <path fill="#181e20" d="M49.62,261.82c-5.02-1.14-7.39-4.01-7.66-8.84-.3-5.36.53-9.98,6.23-12.24,1.69-.67,3.65-1.18,4.88-2.38,2.12-2.07,4.74-4.77,1.89-7.78-7.65-8.12-10.8-18.27-12.78-28.71-2.13-11.24-3.35-22.68-3.35-34.18,0-8.74,2.19-11.29,10.8-12.04,21.55-1.88,41.58,2.58,59.69,14.67,1.79,1.2,3.13,1.67,5.35.58,20.77-10.17,42.86-13.66,65.8-12.43,17.26.93,33.75,5.08,49.31,12.58,2.28,1.1,3.55.5,5.23-.64,16.19-10.97,34.28-15.66,53.63-15.62,16.49.04,18.82,2.36,18.14,18.54-.7,16.6-2.35,33.1-9.74,48.4-1.24,2.56-2.84,4.86-4.67,7.03-3.98,4.68-3.32,8.33,2.53,11.01,7.78,3.57,8.06,5.86,7.73,14.73-.09,2.35-.91,4.94-3.27,5.79-3.23,1.17-2.77,2.77-1.66,5.19,6.34,13.81,10.43,28.23,12.13,43.37,3.74,33.34-6.76,61.16-32.08,83.25-7.41,6.47-15.44,12.12-24.33,16.4-2.34,1.13-2.89,2.41-2.57,4.99,1.84,14.42,1.21,28.89.45,43.34-.12,2.28-.95,4.55-1.64,6.77-3.7,11.83-10.55,15.6-22.42,12.08-12.33-3.66-23.56-9.76-34.62-16.17-2.4-1.4-4.57-1.91-7.46-1.48-8.08,1.19-16.25,1.36-24.31-.27-2.27-.46-3.84.48-5.59,1.4-12.03,6.33-23.84,13.16-37.06,16.89-10.83,3.06-18.61-1.27-21.58-12.25-3.57-13.19-4.12-26.8-2.18-40.09,1.42-9.78-.62-14.78-9.71-19.87-24.33-13.62-40.99-34.16-47.14-61.86-4.03-18.14-2.41-36.3,2.5-54.18,2.42-8.82,5.59-17.36,9.51-25.98Z"/>
    <path fill="#fdc8ca" d="M53.31,288.19c.96,3.27,1.68,5.64,2.36,8.02,4.54,15.91,16.06,25.25,32.64,26.64,8.32.7,16.62.59,24.93-.1,2.56-.21,4.2-.13,3.48,3.25-6.43,29.99,14.65,47.07,38.27,52.89,22.92,5.64,43.99,1.12,61.41-15.57,10.01-9.58,13.01-21.81,10.41-35.23-.99-5.13.84-5.85,5.24-5.37,8.45.93,16.93.69,25.41-.05,15.53-1.35,27.35-11.23,31.13-26.36.82-3.3,1.59-6.61,2.57-10.73,4.28,9.99,6,19.7,6.48,29.65,1.86,38.02-16.99,63.5-49.17,80.9-1.62.88-2.8,1.34-4.34-.24-3.89-3.99-8.46-3.75-13.36-1.99-13.53,4.87-25.89,12-38,19.56-2.41,1.5-4.28,1.63-6.88.78-8.61-2.84-17.35-2.81-25.93.12-2.39.82-4,.28-5.94-.92-12.17-7.48-24.49-14.66-38.13-19.29-5.07-1.72-9.82-2.07-13.93,1.88-1.66,1.6-2.96.95-4.43.13-24.39-13.62-42.55-32.13-48.12-60.7-3.07-15.76-.77-31.04,3.9-47.31Z"/>
    <path fill="#fdc8ca" d="M69.74,237.22c12.02-34.16,49.76-65.78,101.27-65.23,50.75.54,87.47,25.48,104.71,65.61-15.99-3.65-32.03-4.47-48.16-3.86-7.79.3-15.53,1.18-23.22,2.68-8.78,1.71-15.28,6.35-19.11,14.36-1.31,2.74-2.74,3.08-5.41,2.38-5.54-1.47-11.17-1.52-16.75.02-1.68.46-2.88.68-3.87-1.52-4.65-10.29-13.5-14.49-24.1-16.05-21.7-3.18-43.31-2.84-65.38,1.62Z"/>
    <path fill="#fcc8ca" d="M236.53,247.39c11.4-.14,21.71.13,31.87,2.16,7.7,1.54,10.99,5.76,11.15,13.58.2,9.35-.85,18.55-2.86,27.67-2.19,9.9-9.68,17.18-19.73,18.47-11.78,1.52-23.58.96-35.34-.5-.82-.1-1.89-.04-2.39-.52-9.38-8.9-22.93-14.58-23.36-30.41-.12-4.3-1.03-8.58-.56-12.92,1.03-9.54,6.28-15.05,15.88-16.22,8.76-1.07,17.57-1.65,25.33-1.32Z"/>
    <path fill="#fcc8ca" d="M108.47,247.31c6.03-.28,14.48.53,22.92,1.33,11.5,1.09,16.97,6.89,17.26,18.5.16,6.5-.97,12.9-2.72,19.15-1.11,3.95-3.3,7.18-6.72,9.6-2.03,1.44-4.13,2.9-5.77,4.73-5.96,6.67-13.41,8.97-22.19,9.13-7.14.13-14.24.6-21.38-.22-12.29-1.41-20.22-8.08-22.65-20.29-1.68-8.45-2.72-17.06-2.37-25.75.35-8.56,3.45-12.43,11.86-14.07,9.66-1.89,19.49-1.97,31.77-2.12Z"/>
    <path fill="#fcc8ca" d="M172.31,367.53c-8.91.26-17.09-1.77-24.86-5.38-21.22-9.86-24.99-33.06-8.32-49.5,13.84-13.65,30.64-12.62,47.64-9.68,11.86,2.05,19.86,9.87,24.89,20.33,6.85,14.25,1.16,29.61-13.39,37.62-8.13,4.47-16.85,6.92-25.96,6.61Z"/>
    <path fill="#fcc8ca" d="M281.86,220.08c-5.13-8.24-10.21-15.39-16.08-21.92-5.86-6.52-12.29-12.46-19.78-17.97,14.2-9.04,29.15-12.6,45.33-11.46,1.64.12,2.43.69,2.3,2.4-1.15,14.87-1.97,29.81-8.42,43.65-.76,1.63-1.92,3.07-3.34,5.29Z"/>
    <path fill="#fcc8ca" d="M63.42,219.05c-5.94-8.53-7.84-17.78-9.33-27.08-1-6.21-1.23-12.53-1.94-18.79-.35-3.08.35-4.41,3.89-4.43,14.94-.05,28.89,3.26,42.03,11.46-14.34,10.31-25.72,23.06-34.65,38.84Z"/>
    <path fill="#fbc9cb" d="M159.38,288.84c.75-6.11,1.41-11.52,2.07-16.94.04-.33-.02-.67.05-.99.67-3.12,5.74-5.15,12.52-4.4,3.53.39,8.21.22,8.58,5.43.34,4.8.7,9.57,1.74,14.25.5,2.28-.51,2.53-2.32,2.36-7.42-.69-14.85-.62-22.64.29Z"/>
    <path fill="#171e1f" d="M242.88,279.64c-.03,6.87-5.21,12.29-11.75,12.3-6.36.02-12.33-6.06-12.38-12.62-.05-6.72,5.71-12.86,12.03-12.83,6.92.03,12.13,5.7,12.1,13.15Z"/>
    <path fill="#171e20" d="M125.79,278.87c.07,6.89-5.32,12.94-11.68,13.13-6.65.19-12.55-5.78-12.6-12.76-.05-6.82,5.42-12.6,12.04-12.71,6.73-.12,12.17,5.37,12.24,12.35Z"/>
    <path fill="#181e22" d="M196.68,335.53c0,5.87-4.07,10.89-8.7,10.74-4.38-.14-8.15-5.06-8.24-10.75-.09-5.72,3.99-11.01,8.52-11.05,4.47-.04,8.42,5.15,8.42,11.06Z"/>
    <path fill="#1a1f21" d="M146.01,334.76c.21-1.04.27-2.96.99-4.59,1.33-2.99,3.51-5.37,7.02-5.63,3.66-.27,5.82,2.24,7.37,5.05.85,1.54,1.23,3.47,1.36,5.26.44,5.94-3.29,11.12-7.99,11.39-4.78.28-8.66-4.48-8.75-11.49Z"/>
  </g>
</svg>
